<svg id="Capa_1" enable-background="new 0 0 512 512" height="512" viewBox="0 0 512 512" width="512" xmlns="http://www.w3.org/2000/svg"><g><path d="m412.271 99.729c-38.186-38.185-87.887-60.663-141.271-64.218v-35.511h-30v35.511c-53.384 3.555-103.085 26.033-141.271 64.218-38.185 38.186-60.663 87.887-64.218 141.271h-35.511v30h35.511c3.555 53.384 26.033 103.085 64.218 141.271s87.886 60.664 141.271 64.218v35.511h30v-35.511c53.384-3.555 103.085-26.033 141.271-64.218s60.664-87.886 64.219-141.271h35.51v-30h-35.511c-3.555-53.384-26.033-103.085-64.218-141.271zm-156.271 347.271c-105.318 0-191-85.682-191-191s85.682-191 191-191c105.317 0 191 85.682 191 191s-85.683 191-191 191z"/><path d="m189.586 185.746v45.254c0 5.514-4.486 10-10 10h-17.405v30h17.405c5.514 0 10 4.486 10 10v45.254c0 22.056 17.944 40 40 40h10.612v-30h-10.612c-5.514 0-10-4.486-10-10v-45.254c0-9.454-3.304-18.146-8.808-25 5.504-6.854 8.808-15.546 8.808-25v-45.254c0-5.514 4.486-10 10-10h10.612v-30h-10.612c-22.056 0-40 17.943-40 40z"/><path d="m322.414 231v-45.254c0-22.056-17.944-40-40-40h-10.612v30h10.612c5.514 0 10 4.486 10 10v45.254c0 9.454 3.304 18.146 8.808 25-5.504 6.854-8.808 15.546-8.808 25v45.254c0 5.514-4.486 10-10 10h-10.612v30h10.612c22.056 0 40-17.944 40-40v-45.254c0-5.514 4.486-10 10-10h17.405v-30h-17.405c-5.514 0-10-4.486-10-10z"/><path d="m30 427h-30v85h85v-30h-55z"/><path d="m482 482h-55v30h85v-85h-30z"/><path d="m427 0v30h55v55h30v-85z"/><path d="m30 30h55v-30h-85v85h30z"/></g></svg>